<?xml version="1.0" standalone="no"?><!DOCTYPE svg PUBLIC "-//W3C//DTD SVG 1.1//EN" "http://www.w3.org/Graphics/SVG/1.1/DTD/svg11.dtd"><svg t="1563405170318" class="icon" viewBox="0 0 1024 1024" version="1.1" xmlns="http://www.w3.org/2000/svg" p-id="9656" xmlns:xlink="http://www.w3.org/1999/xlink" width="200" height="200"><defs><style type="text/css"></style></defs><path d="M842.285714 750.285714q0-36-25.142857-66.285714t-58.857143-30.285714q-29.714286 0-47.428571 21.142857t-17.714286 53.714286 20.857143 54.285714 59.714286 21.714286q28.571429 0 48.571428-15.428572t20-38.857143z m-348.571428 72.571429q0 6.857143-5.714286 13.714286l-182.285714 182.285714q-5.714286 5.142857-13.142857 5.142857-6.857143 0-13.142858-5.142857L96.571429 836q-8.571429-9.142857-4-20 4.571429-11.428571 17.142857-11.428571h109.714285V18.285714q0-8 5.142858-13.142857t13.142857-5.142857h109.714285q8 0 13.142858 5.142857t5.142857 13.142857v786.285715h109.714285q8 0 13.142858 5.142857t5.142857 13.142857z m428.571428-39.428572q0 35.428571-7.428571 69.428572t-23.428572 65.142857-38.857142 54.571429-56.285715 37.428571T723.428571 1024q-35.428571 0-61.714285-9.142857-13.714286-4.571429-24-8.571429l22.285714-64.571428q8.571429 4 17.714286 6.285714 21.142857 7.428571 42.857143 7.428571 48 0 76.857142-33.428571T835.428571 838.857143h-1.142857q-12 13.142857-35.142857 21.142857t-48.285714 8q-60.571429 0-98.857143-40.857143T613.714286 728.571429q0-60 41.142857-101.714286t103.428571-41.714286q70.285714 0 117.142857 54t46.857143 144.285714z m-17.142857-409.714285v65.142857H637.142857V373.714286h95.428572V126.857143q0-4 0.285714-10.857143t0.285714-9.714286v-9.142857h-1.142857l-4 6.857143q-4.571429 7.428571-14.857143 17.714286l-35.428571 33.142857-46.857143-49.142857L740.571429 0h70.285714v373.714286h94.285714z" p-id="9657"></path></svg>