<?xml version="1.0" standalone="no"?><!DOCTYPE svg PUBLIC "-//W3C//DTD SVG 1.1//EN" "http://www.w3.org/Graphics/SVG/1.1/DTD/svg11.dtd"><svg t="1563405150851" class="icon" viewBox="0 0 1024 1024" version="1.1" xmlns="http://www.w3.org/2000/svg" p-id="9302" xmlns:xlink="http://www.w3.org/1999/xlink" width="200" height="200"><defs><style type="text/css"></style></defs><path d="M717.142857 233.142857h101.142857l-41.142857-124.571428-6.857143-26.857143q-1.142857-9.142857-1.142857-11.428572h-2.285714l-1.714286 11.428572q0 0.571429-2 10.285714t-4.285714 16.571429zM457.142857 822.857143q0 6.857143-5.714286 13.714286l-182.285714 182.285714q-5.714286 5.142857-13.142857 5.142857-6.857143 0-13.142857-5.142857L60 836q-8.571429-9.142857-4-20 4.571429-11.428571 17.142857-11.428571h109.714286V18.285714q0-8 5.142857-13.142857t13.142857-5.142857h109.714286q8 0 13.142857 5.142857t5.142857 13.142857v786.285715h109.714286q8 0 13.142857 5.142857t5.142857 13.142857z m477.714286 68v133.142857H601.142857v-51.428571l210.857143-302.285715q6.857143-10.285714 12-15.428571l6.285714-5.142857v-1.714286q-1.142857 0-3.714285 0.285714t-4.285715 0.285715q-6.857143 1.714286-17.142857 1.714285h-132.571428v65.714286H604v-130.857143h324v50.857143l-210.857143 302.857143q-3.428571 4.571429-12 14.857143l-6.285714 6.285714v1.142857l8-1.142857q5.142857-1.142857 17.142857-1.142857h141.714286v-68h69.142857z m50.857143-512.571429v60.571429h-164.571429V378.285714h42.857143l-26.857143-82.285714h-138.857143l-26.857143 82.285714h42.857143v60.571429H550.285714V378.285714h40L721.714286 0h92.571428l131.428572 378.285714h40z" p-id="9303"></path></svg>