<?xml version="1.0" standalone="no"?><!DOCTYPE svg PUBLIC "-//W3C//DTD SVG 1.1//EN" "http://www.w3.org/Graphics/SVG/1.1/DTD/svg11.dtd"><svg t="1563405156770" class="icon" viewBox="0 0 1024 1024" version="1.1" xmlns="http://www.w3.org/2000/svg" p-id="9420" xmlns:xlink="http://www.w3.org/1999/xlink" width="200" height="200"><defs><style type="text/css"></style></defs><path d="M717.142857 818.285714h101.142857l-41.142857-124.571428-6.857143-26.857143q-1.142857-9.142857-1.142857-11.428572h-2.285714l-1.714286 11.428572q0 0.571429-2 10.285714t-4.285714 16.571429z m-260 4.571429q0 6.857143-5.714286 13.714286l-182.285714 182.285714q-5.714286 5.142857-13.142857 5.142857-6.857143 0-13.142857-5.142857L60 836q-8.571429-9.142857-4-20 4.571429-11.428571 17.142857-11.428571h109.714286V18.285714q0-8 5.142857-13.142857t13.142857-5.142857h109.714286q8 0 13.142857 5.142857t5.142857 13.142857v786.285715h109.714286q8 0 13.142857 5.142857t5.142857 13.142857z m528.571429 140.571428v60.571429h-164.571429v-60.571429h42.857143l-26.857143-82.285714h-138.857143l-26.857143 82.285714h42.857143v60.571429H550.285714v-60.571429h40l131.428572-378.285714h92.571428l131.428572 378.285714h40z m-50.857143-657.714285v133.142857H601.142857v-51.428572l210.857143-302.285714q6.857143-10.285714 12-15.428571l6.285714-5.142857v-1.714286q-1.142857 0-3.714285 0.285714t-4.285715 0.285714q-6.857143 1.714286-17.142857 1.714286h-132.571428v65.714286H604V0h324v50.857143l-210.857143 302.857143q-3.428571 4.571429-12 14.857143l-6.285714 5.714285v1.714286l8-1.714286q5.142857-0.571429 17.142857-0.571428h141.714286V305.714286h69.142857z" p-id="9421"></path></svg>